# xmcd
#
# Track frame offsets: 
#        150
#        17319
#        34901
#        55117
#        77423
#        92078
#        110301
#        126738
#        147481
#        164070
#        183640
#        203343
#        218940
#
# Disc length: 3204 seconds
#
# Revision: 0
# Processed by: cddbd v1.5.2PL0 Copyright (c) Steve Scherf et al.
# Submitted via: ExactAudioCopy v1.0b3
#
DISCID=b40c820d
DTITLE=Steve Grand - All American Boy
DYEAR=2015
DGENRE=Country
TTITLE0=Say You Love Me
TTITLE1=Red, White and Blue
TTITLE2=We Are the Night
TTITLE3=All-American Boy
TTITLE4=Soakin' Wet
TTITLE5=Lovin' Again
TTITLE6=Whiskey Crime
TTITLE7=STAY
TTITLE8=Next to Me
TTITLE9=Time
TTITLE10=Better Off
TTITLE11=Run
TTITLE12=Back to California
EXTD=
EXTT0=
EXTT1=
EXTT2=
EXTT3=
EXTT4=
EXTT5=
EXTT6=
EXTT7=
EXTT8=
EXTT9=
EXTT10=
EXTT11=
EXTT12=
PLAYORDER=
